<?xml version="1.0" encoding="utf-8"?>
<!-- Generator: Adobe Illustrator 22.1.0, SVG Export Plug-In . SVG Version: 6.00 Build 0)  -->
<svg version="1.1" id="Layer_1" xmlns="http://www.w3.org/2000/svg" xmlns:xlink="http://www.w3.org/1999/xlink" x="0px" y="0px"
	 viewBox="0 0 91.7 11.5" style="enable-background:new 0 0 91.7 11.5;" xml:space="preserve">
<style type="text/css">
	.st0{fill:#E43333;}
</style>
<title>logo_codigo</title>
<path class="st0" d="M35.2,11.5c-0.4,0-0.7-0.3-0.7-0.7s0.3-0.7,0.7-0.7c2.4,0,4.4-2,4.4-4.4s-2-4.4-4.4-4.4c-0.4,0-0.7-0.3-0.7-0.7
	S34.8,0,35.2,0l0,0c3.2,0,5.7,2.6,5.7,5.7S38.3,11.5,35.2,11.5"/>
<path class="st0" d="M51,11.5c-0.4,0-0.7-0.3-0.7-0.7V0.7C50.3,0.3,50.6,0,51,0s0.7,0.3,0.7,0.7v10.1C51.7,11.1,51.4,11.4,51,11.5"
	/>
<path class="st0" d="M86,11.5c-3.2,0-5.7-2.6-5.7-5.7C80.2,2.6,82.8,0,86,0s5.7,2.6,5.7,5.7l0,0C91.7,8.9,89.1,11.5,86,11.5 M86,1.4
	c-2.4,0-4.4,2-4.3,4.4s2,4.4,4.4,4.3c2.4,0,4.3-1.9,4.3-4.3C90.3,3.4,88.4,1.4,86,1.4"/>
<path class="st0" d="M66.9,11.5c-3.2,0-5.7-2.6-5.7-5.7S63.7,0,66.9,0c0.4,0,0.7,0.3,0.7,0.7s-0.3,0.7-0.7,0.7l0,0
	c-2.4,0-4.4,2-4.4,4.4s2,4.4,4.4,4.4c2.1,0,4-1.6,4.3-3.7h-1.3c-0.4,0-0.7-0.3-0.7-0.7s0.3-0.7,0.7-0.7h2c0.4,0,0.7,0.3,0.7,0.7l0,0
	C72.6,8.9,70,11.5,66.9,11.5"/>
<path class="st0" d="M5.8,11.5C2.6,11.5,0,8.9,0,5.7S2.6,0,5.8,0c0.4,0,0.7,0.3,0.7,0.7S6.2,1.4,5.8,1.4l0,0c-2.4,0-4.4,2-4.4,4.4
	s2,4.4,4.4,4.4c0.4,0,0.7,0.3,0.7,0.7C6.5,11.2,6.2,11.5,5.8,11.5"/>
<path class="st0" d="M20.4,11.5c-3.2,0-5.7-2.6-5.7-5.8S17.3,0,20.5,0s5.7,2.6,5.7,5.7C26.1,8.9,23.5,11.5,20.4,11.5 M20.4,1.4
	c-2.4,0-4.4,2-4.3,4.4c0,2.4,2,4.4,4.4,4.3c2.4,0,4.3-1.9,4.3-4.3C24.7,3.4,22.8,1.4,20.4,1.4"/>
</svg>
